<mxfile host="app.diagrams.net" agent="Mozilla/5.0 (Windows NT 10.0; Win64; x64) AppleWebKit/537.36 (KHTML, like Gecko) Chrome/130.0.0.0 Safari/537.36" version="24.7.17">
  <diagram name="Page-1" id="8bclUcc1Q9qPuTqegD4R">
    <mxGraphModel grid="1" page="1" gridSize="10" guides="1" tooltips="1" connect="1" arrows="1" fold="1" pageScale="1" pageWidth="850" pageHeight="1100" math="0" shadow="0">
      <root>
        <mxCell id="0" />
        <mxCell id="1" parent="0" />
        <mxCell id="e_A2avNtBCYGKitG2HXS-57" value="Stream" style="swimlane;childLayout=stackLayout;horizontal=1;startSize=50;horizontalStack=0;rounded=1;fontSize=14;fontStyle=0;strokeWidth=2;resizeParent=0;resizeLast=1;shadow=0;dashed=0;align=center;arcSize=4;whiteSpace=wrap;html=1;" vertex="1" parent="1">
          <mxGeometry x="-630" y="-356" width="160" height="190" as="geometry">
            <mxRectangle x="-620" y="-300" width="80" height="50" as="alternateBounds" />
          </mxGeometry>
        </mxCell>
        <mxCell id="e_A2avNtBCYGKitG2HXS-58" value="&lt;div&gt;Stream ID&lt;/div&gt;Channel (FK Channel)&lt;div&gt;Title&lt;/div&gt;&lt;div&gt;View Count&lt;/div&gt;&lt;div&gt;Duration&lt;/div&gt;&lt;div&gt;Date&lt;/div&gt;&lt;div&gt;Category (FK Category)&lt;br&gt;Chat (FK Chat)&lt;/div&gt;" style="align=left;strokeColor=none;fillColor=none;spacingLeft=4;fontSize=12;verticalAlign=top;resizable=0;rotatable=0;part=1;html=1;" vertex="1" parent="e_A2avNtBCYGKitG2HXS-57">
          <mxGeometry y="50" width="160" height="140" as="geometry" />
        </mxCell>
        <mxCell id="aQ0zjAfjhiI7hPz5W_YJ-1" value="Notification" style="swimlane;childLayout=stackLayout;horizontal=1;startSize=50;horizontalStack=0;rounded=1;fontSize=14;fontStyle=0;strokeWidth=2;resizeParent=0;resizeLast=1;shadow=0;dashed=0;align=center;arcSize=4;whiteSpace=wrap;html=1;" vertex="1" parent="1">
          <mxGeometry x="-1260" y="-550" width="160" height="120" as="geometry" />
        </mxCell>
        <mxCell id="aQ0zjAfjhiI7hPz5W_YJ-2" value="&lt;div&gt;Notification ID&lt;/div&gt;Channel (FK Channel)&lt;br&gt;&lt;div&gt;&lt;span style=&quot;background-color: initial;&quot;&gt;User&lt;/span&gt;&amp;nbsp;(FK&amp;nbsp;&lt;span style=&quot;background-color: initial;&quot;&gt;User&lt;/span&gt;&lt;span style=&quot;background-color: initial;&quot;&gt;)&lt;/span&gt;&lt;/div&gt;&lt;div&gt;Message&lt;/div&gt;" style="align=left;strokeColor=none;fillColor=none;spacingLeft=4;fontSize=12;verticalAlign=top;resizable=0;rotatable=0;part=1;html=1;" vertex="1" parent="aQ0zjAfjhiI7hPz5W_YJ-1">
          <mxGeometry y="50" width="160" height="70" as="geometry" />
        </mxCell>
        <mxCell id="aQ0zjAfjhiI7hPz5W_YJ-3" value="Emote" style="swimlane;childLayout=stackLayout;horizontal=1;startSize=50;horizontalStack=0;rounded=1;fontSize=14;fontStyle=0;strokeWidth=2;resizeParent=0;resizeLast=1;shadow=0;dashed=0;align=center;arcSize=4;whiteSpace=wrap;html=1;" vertex="1" parent="1">
          <mxGeometry x="-1260" y="-70" width="160" height="120" as="geometry" />
        </mxCell>
        <mxCell id="aQ0zjAfjhiI7hPz5W_YJ-4" value="Emote ID&lt;br&gt;&lt;div&gt;&lt;span style=&quot;background-color: initial;&quot;&gt;User&lt;/span&gt;&amp;nbsp;(FK User)&lt;/div&gt;" style="align=left;strokeColor=none;fillColor=none;spacingLeft=4;fontSize=12;verticalAlign=top;resizable=0;rotatable=0;part=1;html=1;" vertex="1" parent="aQ0zjAfjhiI7hPz5W_YJ-3">
          <mxGeometry y="50" width="160" height="70" as="geometry" />
        </mxCell>
        <mxCell id="aQ0zjAfjhiI7hPz5W_YJ-5" value="Channel" style="swimlane;childLayout=stackLayout;horizontal=1;startSize=50;horizontalStack=0;rounded=1;fontSize=14;fontStyle=0;strokeWidth=2;resizeParent=0;resizeLast=1;shadow=0;dashed=0;align=center;arcSize=4;whiteSpace=wrap;html=1;" vertex="1" parent="1">
          <mxGeometry x="-870" y="-340" width="160" height="138" as="geometry">
            <mxRectangle x="-820" y="22" width="90" height="50" as="alternateBounds" />
          </mxGeometry>
        </mxCell>
        <mxCell id="aQ0zjAfjhiI7hPz5W_YJ-6" value="Channel ID&lt;br&gt;&lt;div&gt;&lt;span style=&quot;background-color: initial;&quot;&gt;User&lt;/span&gt;&amp;nbsp;(FK User)&lt;/div&gt;&lt;div&gt;Subscriber Count&lt;/div&gt;&lt;div&gt;Is Live&lt;/div&gt;&lt;div&gt;&lt;br&gt;&lt;/div&gt;" style="align=left;strokeColor=none;fillColor=none;spacingLeft=4;fontSize=12;verticalAlign=top;resizable=0;rotatable=0;part=1;html=1;" vertex="1" parent="aQ0zjAfjhiI7hPz5W_YJ-5">
          <mxGeometry y="50" width="160" height="88" as="geometry" />
        </mxCell>
        <mxCell id="aQ0zjAfjhiI7hPz5W_YJ-7" value="Category" style="swimlane;childLayout=stackLayout;horizontal=1;startSize=50;horizontalStack=0;rounded=1;fontSize=14;fontStyle=0;strokeWidth=2;resizeParent=0;resizeLast=1;shadow=0;dashed=0;align=center;arcSize=4;whiteSpace=wrap;html=1;" vertex="1" parent="1">
          <mxGeometry x="-630" y="-510" width="160" height="120" as="geometry" />
        </mxCell>
        <mxCell id="aQ0zjAfjhiI7hPz5W_YJ-8" value="Category ID&lt;div&gt;Type&lt;/div&gt;&lt;div&gt;Name&lt;/div&gt;" style="align=left;strokeColor=none;fillColor=none;spacingLeft=4;fontSize=12;verticalAlign=top;resizable=0;rotatable=0;part=1;html=1;" vertex="1" parent="aQ0zjAfjhiI7hPz5W_YJ-7">
          <mxGeometry y="50" width="160" height="70" as="geometry" />
        </mxCell>
        <mxCell id="aQ0zjAfjhiI7hPz5W_YJ-11" value="Chat" style="swimlane;childLayout=stackLayout;horizontal=1;startSize=50;horizontalStack=0;rounded=1;fontSize=14;fontStyle=0;strokeWidth=2;resizeParent=0;resizeLast=1;shadow=0;dashed=0;align=center;arcSize=4;whiteSpace=wrap;html=1;" vertex="1" parent="1">
          <mxGeometry x="-630" y="-130" width="160" height="120" as="geometry" />
        </mxCell>
        <mxCell id="aQ0zjAfjhiI7hPz5W_YJ-12" value="Chat ID&lt;div&gt;Stream (FK Stream)&lt;/div&gt;" style="align=left;strokeColor=none;fillColor=none;spacingLeft=4;fontSize=12;verticalAlign=top;resizable=0;rotatable=0;part=1;html=1;" vertex="1" parent="aQ0zjAfjhiI7hPz5W_YJ-11">
          <mxGeometry y="50" width="160" height="70" as="geometry" />
        </mxCell>
        <mxCell id="aQ0zjAfjhiI7hPz5W_YJ-33" style="edgeStyle=orthogonalEdgeStyle;rounded=0;orthogonalLoop=1;jettySize=auto;html=1;endArrow=ERmany;endFill=0;" edge="1" parent="1" source="aQ0zjAfjhiI7hPz5W_YJ-13">
          <mxGeometry relative="1" as="geometry">
            <mxPoint x="-1180" y="-430" as="targetPoint" />
            <Array as="points">
              <mxPoint x="-1180" y="-430" />
            </Array>
          </mxGeometry>
        </mxCell>
        <mxCell id="aQ0zjAfjhiI7hPz5W_YJ-41" style="edgeStyle=orthogonalEdgeStyle;rounded=0;orthogonalLoop=1;jettySize=auto;html=1;entryX=0.407;entryY=0.011;entryDx=0;entryDy=0;endArrow=ERmany;endFill=0;entryPerimeter=0;" edge="1" parent="1" source="aQ0zjAfjhiI7hPz5W_YJ-13" target="aQ0zjAfjhiI7hPz5W_YJ-3">
          <mxGeometry relative="1" as="geometry">
            <Array as="points">
              <mxPoint x="-1195" y="-180" />
              <mxPoint x="-1195" y="-180" />
            </Array>
          </mxGeometry>
        </mxCell>
        <mxCell id="aQ0zjAfjhiI7hPz5W_YJ-13" value="User" style="swimlane;childLayout=stackLayout;horizontal=1;startSize=50;horizontalStack=0;rounded=1;fontSize=14;fontStyle=0;strokeWidth=2;resizeParent=0;resizeLast=1;shadow=0;dashed=0;align=center;arcSize=4;whiteSpace=wrap;html=1;" vertex="1" parent="1">
          <mxGeometry x="-1260" y="-340" width="160" height="120" as="geometry" />
        </mxCell>
        <mxCell id="aQ0zjAfjhiI7hPz5W_YJ-14" value="User ID&lt;div&gt;Channel (FK Channel)&lt;/div&gt;&lt;div&gt;Username&lt;/div&gt;" style="align=left;strokeColor=none;fillColor=none;spacingLeft=4;fontSize=12;verticalAlign=top;resizable=0;rotatable=0;part=1;html=1;" vertex="1" parent="aQ0zjAfjhiI7hPz5W_YJ-13">
          <mxGeometry y="50" width="160" height="70" as="geometry" />
        </mxCell>
        <mxCell id="aQ0zjAfjhiI7hPz5W_YJ-19" style="edgeStyle=orthogonalEdgeStyle;rounded=0;orthogonalLoop=1;jettySize=auto;html=1;exitX=1;exitY=0.25;exitDx=0;exitDy=0;entryX=-0.003;entryY=0.468;entryDx=0;entryDy=0;entryPerimeter=0;endArrow=ERmany;endFill=0;" edge="1" parent="1" source="aQ0zjAfjhiI7hPz5W_YJ-5" target="e_A2avNtBCYGKitG2HXS-58">
          <mxGeometry relative="1" as="geometry">
            <Array as="points">
              <mxPoint x="-700" y="-240" />
              <mxPoint x="-630" y="-240" />
            </Array>
          </mxGeometry>
        </mxCell>
        <mxCell id="aQ0zjAfjhiI7hPz5W_YJ-22" value="Subscriptions" style="swimlane;childLayout=stackLayout;horizontal=1;startSize=50;horizontalStack=0;rounded=1;fontSize=14;fontStyle=0;strokeWidth=2;resizeParent=0;resizeLast=1;shadow=0;dashed=0;align=center;arcSize=4;whiteSpace=wrap;html=1;" vertex="1" parent="1">
          <mxGeometry x="-1060" y="-290" width="160" height="170" as="geometry" />
        </mxCell>
        <mxCell id="aQ0zjAfjhiI7hPz5W_YJ-23" value="&lt;div&gt;Subscription ID&lt;/div&gt;&lt;div&gt;&lt;span style=&quot;background-color: initial;&quot;&gt;User&lt;/span&gt;&amp;nbsp;(FK&amp;nbsp;&lt;span style=&quot;background-color: initial;&quot;&gt;User&lt;/span&gt;&lt;span style=&quot;background-color: initial;&quot;&gt;)&lt;/span&gt;&lt;/div&gt;Channel (FK Channel)&lt;div&gt;Start Date&lt;/div&gt;&lt;div&gt;End Date&lt;/div&gt;&lt;div&gt;Tier&lt;/div&gt;&lt;div&gt;Cost&lt;/div&gt;" style="align=left;strokeColor=none;fillColor=none;spacingLeft=4;fontSize=12;verticalAlign=top;resizable=0;rotatable=0;part=1;html=1;" vertex="1" parent="aQ0zjAfjhiI7hPz5W_YJ-22">
          <mxGeometry y="50" width="160" height="120" as="geometry" />
        </mxCell>
        <mxCell id="aQ0zjAfjhiI7hPz5W_YJ-25" style="edgeStyle=orthogonalEdgeStyle;rounded=0;orthogonalLoop=1;jettySize=auto;html=1;entryX=0.007;entryY=0.179;entryDx=0;entryDy=0;endArrow=ERmany;endFill=0;exitX=1.004;exitY=0.435;exitDx=0;exitDy=0;exitPerimeter=0;entryPerimeter=0;" edge="1" parent="1" source="aQ0zjAfjhiI7hPz5W_YJ-14" target="aQ0zjAfjhiI7hPz5W_YJ-22">
          <mxGeometry relative="1" as="geometry">
            <Array as="points">
              <mxPoint x="-1090" y="-260" />
              <mxPoint x="-1090" y="-260" />
            </Array>
          </mxGeometry>
        </mxCell>
        <mxCell id="aQ0zjAfjhiI7hPz5W_YJ-28" style="edgeStyle=orthogonalEdgeStyle;rounded=0;orthogonalLoop=1;jettySize=auto;html=1;entryX=1.012;entryY=0.141;entryDx=0;entryDy=0;entryPerimeter=0;endArrow=ERmany;endFill=0;exitX=0;exitY=0.75;exitDx=0;exitDy=0;" edge="1" parent="1" source="aQ0zjAfjhiI7hPz5W_YJ-6" target="aQ0zjAfjhiI7hPz5W_YJ-23">
          <mxGeometry relative="1" as="geometry" />
        </mxCell>
        <mxCell id="aQ0zjAfjhiI7hPz5W_YJ-32" style="edgeStyle=orthogonalEdgeStyle;rounded=0;orthogonalLoop=1;jettySize=auto;html=1;endArrow=ERmany;endFill=0;entryX=1.003;entryY=0.43;entryDx=0;entryDy=0;entryPerimeter=0;exitX=0.132;exitY=-0.003;exitDx=0;exitDy=0;exitPerimeter=0;" edge="1" parent="1" source="aQ0zjAfjhiI7hPz5W_YJ-5" target="aQ0zjAfjhiI7hPz5W_YJ-2">
          <mxGeometry relative="1" as="geometry">
            <mxPoint x="-830" y="-340" as="sourcePoint" />
            <mxPoint x="-690" y="-140" as="targetPoint" />
            <Array as="points">
              <mxPoint x="-850" y="-340" />
              <mxPoint x="-850" y="-470" />
              <mxPoint x="-1100" y="-470" />
            </Array>
          </mxGeometry>
        </mxCell>
        <mxCell id="aQ0zjAfjhiI7hPz5W_YJ-34" style="edgeStyle=orthogonalEdgeStyle;rounded=0;orthogonalLoop=1;jettySize=auto;html=1;endArrow=ERmany;endFill=0;exitX=0.5;exitY=0;exitDx=0;exitDy=0;startArrow=ERmany;startFill=0;entryX=0.5;entryY=1;entryDx=0;entryDy=0;" edge="1" parent="1" source="e_A2avNtBCYGKitG2HXS-57" target="aQ0zjAfjhiI7hPz5W_YJ-8">
          <mxGeometry relative="1" as="geometry">
            <mxPoint x="-470" y="-80" as="sourcePoint" />
            <mxPoint x="-370" y="-124.98461538461538" as="targetPoint" />
          </mxGeometry>
        </mxCell>
        <mxCell id="aQ0zjAfjhiI7hPz5W_YJ-35" style="edgeStyle=orthogonalEdgeStyle;rounded=0;orthogonalLoop=1;jettySize=auto;html=1;endArrow=none;endFill=0;" edge="1" parent="1" source="e_A2avNtBCYGKitG2HXS-58" target="aQ0zjAfjhiI7hPz5W_YJ-11">
          <mxGeometry relative="1" as="geometry" />
        </mxCell>
        <mxCell id="aQ0zjAfjhiI7hPz5W_YJ-36" value="Message" style="swimlane;childLayout=stackLayout;horizontal=1;startSize=50;horizontalStack=0;rounded=1;fontSize=14;fontStyle=0;strokeWidth=2;resizeParent=0;resizeLast=1;shadow=0;dashed=0;align=center;arcSize=4;whiteSpace=wrap;html=1;" vertex="1" parent="1">
          <mxGeometry x="-850" y="-166" width="160" height="150" as="geometry" />
        </mxCell>
        <mxCell id="aQ0zjAfjhiI7hPz5W_YJ-37" value="Message ID&lt;br&gt;&lt;div&gt;&lt;span style=&quot;background-color: initial;&quot;&gt;User&lt;/span&gt;&amp;nbsp;(FK&amp;nbsp;&lt;span style=&quot;background-color: initial;&quot;&gt;User&lt;/span&gt;&lt;span style=&quot;background-color: initial;&quot;&gt;)&lt;/span&gt;&lt;/div&gt;&lt;div&gt;Chat (FK Chat)&lt;br&gt;&lt;div&gt;Text&lt;/div&gt;&lt;div&gt;Send Time&lt;/div&gt;&lt;/div&gt;" style="align=left;strokeColor=none;fillColor=none;spacingLeft=4;fontSize=12;verticalAlign=top;resizable=0;rotatable=0;part=1;html=1;" vertex="1" parent="aQ0zjAfjhiI7hPz5W_YJ-36">
          <mxGeometry y="50" width="160" height="100" as="geometry" />
        </mxCell>
        <mxCell id="aQ0zjAfjhiI7hPz5W_YJ-38" style="edgeStyle=orthogonalEdgeStyle;rounded=0;orthogonalLoop=1;jettySize=auto;html=1;entryX=0.002;entryY=0.161;entryDx=0;entryDy=0;entryPerimeter=0;endArrow=ERmany;endFill=0;exitX=0.688;exitY=1.019;exitDx=0;exitDy=0;exitPerimeter=0;" edge="1" parent="1" source="aQ0zjAfjhiI7hPz5W_YJ-14" target="aQ0zjAfjhiI7hPz5W_YJ-37">
          <mxGeometry relative="1" as="geometry">
            <Array as="points">
              <mxPoint x="-1150" y="-100" />
              <mxPoint x="-852" y="-100" />
            </Array>
          </mxGeometry>
        </mxCell>
        <mxCell id="aQ0zjAfjhiI7hPz5W_YJ-39" style="edgeStyle=orthogonalEdgeStyle;rounded=0;orthogonalLoop=1;jettySize=auto;html=1;entryX=1.007;entryY=0.307;entryDx=0;entryDy=0;entryPerimeter=0;endArrow=ERmany;endFill=0;exitX=0.003;exitY=0.373;exitDx=0;exitDy=0;exitPerimeter=0;" edge="1" parent="1" source="aQ0zjAfjhiI7hPz5W_YJ-11" target="aQ0zjAfjhiI7hPz5W_YJ-37">
          <mxGeometry relative="1" as="geometry" />
        </mxCell>
        <mxCell id="aQ0zjAfjhiI7hPz5W_YJ-42" style="edgeStyle=orthogonalEdgeStyle;rounded=0;orthogonalLoop=1;jettySize=auto;html=1;entryX=0;entryY=0.75;entryDx=0;entryDy=0;endArrow=ERmany;endFill=0;startArrow=ERmany;startFill=0;exitX=1;exitY=0.25;exitDx=0;exitDy=0;" edge="1" parent="1" source="aQ0zjAfjhiI7hPz5W_YJ-3" target="aQ0zjAfjhiI7hPz5W_YJ-37">
          <mxGeometry relative="1" as="geometry">
            <mxPoint x="-1200" y="140" as="sourcePoint" />
            <mxPoint x="-947.7199999999998" y="301.9000000000001" as="targetPoint" />
            <Array as="points">
              <mxPoint x="-890" y="-40" />
              <mxPoint x="-890" y="-41" />
            </Array>
          </mxGeometry>
        </mxCell>
        <mxCell id="aQ0zjAfjhiI7hPz5W_YJ-44" style="edgeStyle=orthogonalEdgeStyle;rounded=0;orthogonalLoop=1;jettySize=auto;html=1;entryX=0;entryY=0.285;entryDx=0;entryDy=0;entryPerimeter=0;exitX=0.995;exitY=0.326;exitDx=0;exitDy=0;exitPerimeter=0;endArrow=none;endFill=0;" edge="1" parent="1" source="aQ0zjAfjhiI7hPz5W_YJ-13" target="aQ0zjAfjhiI7hPz5W_YJ-5">
          <mxGeometry relative="1" as="geometry">
            <Array as="points">
              <mxPoint x="-1101" y="-330" />
              <mxPoint x="-870" y="-330" />
            </Array>
          </mxGeometry>
        </mxCell>
        <mxCell id="aQ0zjAfjhiI7hPz5W_YJ-46" value="views&lt;div&gt;(as viewer)&lt;/div&gt;" style="edgeStyle=orthogonalEdgeStyle;rounded=0;orthogonalLoop=1;jettySize=auto;html=1;fillColor=#dae8fc;strokeColor=#6c8ebf;entryX=0.011;entryY=0.627;entryDx=0;entryDy=0;entryPerimeter=0;" edge="1" parent="1" source="aQ0zjAfjhiI7hPz5W_YJ-53" target="aQ0zjAfjhiI7hPz5W_YJ-57">
          <mxGeometry x="0.336" relative="1" as="geometry">
            <Array as="points">
              <mxPoint x="-2360" y="-310" />
              <mxPoint x="-2109" y="-310" />
            </Array>
            <mxPoint as="offset" />
            <mxPoint x="-2130" y="-310" as="targetPoint" />
          </mxGeometry>
        </mxCell>
        <mxCell id="aQ0zjAfjhiI7hPz5W_YJ-47" value="creates&lt;div&gt;(as streamer)&lt;/div&gt;" style="edgeStyle=orthogonalEdgeStyle;rounded=0;orthogonalLoop=1;jettySize=auto;html=1;fillColor=#dae8fc;strokeColor=#6c8ebf;" edge="1" parent="1" source="aQ0zjAfjhiI7hPz5W_YJ-53" target="aQ0zjAfjhiI7hPz5W_YJ-57">
          <mxGeometry x="-0.0769" relative="1" as="geometry">
            <Array as="points">
              <mxPoint x="-2390" y="-330" />
              <mxPoint x="-2020" y="-330" />
            </Array>
            <mxPoint as="offset" />
          </mxGeometry>
        </mxCell>
        <mxCell id="aQ0zjAfjhiI7hPz5W_YJ-48" value="has" style="edgeStyle=orthogonalEdgeStyle;rounded=0;orthogonalLoop=1;jettySize=auto;html=1;fillColor=#dae8fc;strokeColor=#6c8ebf;" edge="1" parent="1" source="aQ0zjAfjhiI7hPz5W_YJ-53" target="aQ0zjAfjhiI7hPz5W_YJ-64">
          <mxGeometry relative="1" as="geometry">
            <Array as="points">
              <mxPoint x="-2200" y="-230" />
            </Array>
          </mxGeometry>
        </mxCell>
        <mxCell id="aQ0zjAfjhiI7hPz5W_YJ-49" value="turns on" style="edgeStyle=orthogonalEdgeStyle;rounded=0;orthogonalLoop=1;jettySize=auto;html=1;entryX=0.25;entryY=1;entryDx=0;entryDy=0;fillColor=#dae8fc;strokeColor=#6c8ebf;exitX=0.679;exitY=0.012;exitDx=0;exitDy=0;exitPerimeter=0;" edge="1" parent="1" source="aQ0zjAfjhiI7hPz5W_YJ-53" target="aQ0zjAfjhiI7hPz5W_YJ-66">
          <mxGeometry x="-0.0495" relative="1" as="geometry">
            <mxPoint x="-2480" y="-340" as="sourcePoint" />
            <mxPoint x="-2220" y="-460" as="targetPoint" />
            <Array as="points">
              <mxPoint x="-2440" y="-289" />
            </Array>
            <mxPoint as="offset" />
          </mxGeometry>
        </mxCell>
        <mxCell id="aQ0zjAfjhiI7hPz5W_YJ-50" value="creates" style="edgeStyle=orthogonalEdgeStyle;rounded=0;orthogonalLoop=1;jettySize=auto;html=1;entryX=0.165;entryY=0.023;entryDx=0;entryDy=0;fillColor=#dae8fc;strokeColor=#6c8ebf;entryPerimeter=0;" edge="1" parent="1" source="aQ0zjAfjhiI7hPz5W_YJ-53" target="aQ0zjAfjhiI7hPz5W_YJ-62">
          <mxGeometry relative="1" as="geometry">
            <Array as="points">
              <mxPoint x="-2450" y="-110" />
              <mxPoint x="-2450" y="-110" />
            </Array>
          </mxGeometry>
        </mxCell>
        <mxCell id="aQ0zjAfjhiI7hPz5W_YJ-71" value="purchases" style="edgeStyle=orthogonalEdgeStyle;rounded=0;orthogonalLoop=1;jettySize=auto;html=1;exitX=0.701;exitY=0.974;exitDx=0;exitDy=0;entryX=0.118;entryY=0.012;entryDx=0;entryDy=0;fillColor=#dae8fc;strokeColor=#6c8ebf;exitPerimeter=0;entryPerimeter=0;" edge="1" parent="1" source="aQ0zjAfjhiI7hPz5W_YJ-53" target="aQ0zjAfjhiI7hPz5W_YJ-70">
          <mxGeometry x="0.1919" relative="1" as="geometry">
            <Array as="points" />
            <mxPoint as="offset" />
          </mxGeometry>
        </mxCell>
        <mxCell id="aQ0zjAfjhiI7hPz5W_YJ-53" value="&lt;font style=&quot;font-size: 20px;&quot;&gt;User&lt;/font&gt;" style="shape=ext;double=1;rounded=0;whiteSpace=wrap;html=1;fontSize=20;fillColor=#dae8fc;strokeColor=#6c8ebf;" vertex="1" parent="1">
          <mxGeometry x="-2470" y="-291" width="120" height="80" as="geometry" />
        </mxCell>
        <mxCell id="aQ0zjAfjhiI7hPz5W_YJ-54" value="belongs to" style="edgeStyle=orthogonalEdgeStyle;rounded=0;orthogonalLoop=1;jettySize=auto;html=1;entryX=0.5;entryY=1;entryDx=0;entryDy=0;fillColor=#dae8fc;strokeColor=#6c8ebf;" edge="1" parent="1" source="aQ0zjAfjhiI7hPz5W_YJ-57" target="aQ0zjAfjhiI7hPz5W_YJ-68">
          <mxGeometry relative="1" as="geometry">
            <Array as="points">
              <mxPoint x="-2050" y="-320" />
            </Array>
          </mxGeometry>
        </mxCell>
        <mxCell id="aQ0zjAfjhiI7hPz5W_YJ-55" value="has" style="edgeStyle=orthogonalEdgeStyle;rounded=0;orthogonalLoop=1;jettySize=auto;html=1;exitX=0.5;exitY=1;exitDx=0;exitDy=0;fillColor=#dae8fc;strokeColor=#6c8ebf;" edge="1" parent="1" source="aQ0zjAfjhiI7hPz5W_YJ-57" target="aQ0zjAfjhiI7hPz5W_YJ-67">
          <mxGeometry relative="1" as="geometry" />
        </mxCell>
        <mxCell id="aQ0zjAfjhiI7hPz5W_YJ-56" value="triggers" style="edgeStyle=orthogonalEdgeStyle;rounded=0;orthogonalLoop=1;jettySize=auto;html=1;entryX=1.002;entryY=0.539;entryDx=0;entryDy=0;fillColor=#dae8fc;strokeColor=#6c8ebf;entryPerimeter=0;exitX=0.329;exitY=0.021;exitDx=0;exitDy=0;exitPerimeter=0;" edge="1" parent="1" source="aQ0zjAfjhiI7hPz5W_YJ-64" target="aQ0zjAfjhiI7hPz5W_YJ-66">
          <mxGeometry relative="1" as="geometry">
            <Array as="points">
              <mxPoint x="-2170" y="-193" />
              <mxPoint x="-2170" y="-240" />
              <mxPoint x="-2170" y="-427" />
            </Array>
            <mxPoint as="offset" />
            <mxPoint x="-2070" y="-240" as="sourcePoint" />
          </mxGeometry>
        </mxCell>
        <mxCell id="aQ0zjAfjhiI7hPz5W_YJ-57" value="Stream" style="shape=ext;double=1;rounded=0;whiteSpace=wrap;html=1;fontSize=20;strokeColor=#6c8ebf;fillColor=#dae8fc;" vertex="1" parent="1">
          <mxGeometry x="-2110" y="-360" width="120" height="80" as="geometry" />
        </mxCell>
        <mxCell id="aQ0zjAfjhiI7hPz5W_YJ-61" value="exclusive to" style="edgeStyle=orthogonalEdgeStyle;rounded=0;orthogonalLoop=1;jettySize=auto;html=1;fillColor=#dae8fc;strokeColor=#6c8ebf;" edge="1" parent="1" source="aQ0zjAfjhiI7hPz5W_YJ-62" target="aQ0zjAfjhiI7hPz5W_YJ-64">
          <mxGeometry relative="1" as="geometry">
            <Array as="points">
              <mxPoint x="-2200" y="10" />
            </Array>
          </mxGeometry>
        </mxCell>
        <mxCell id="aQ0zjAfjhiI7hPz5W_YJ-62" value="Emote" style="shape=ext;double=1;rounded=0;whiteSpace=wrap;html=1;fontSize=20;fillColor=#dae8fc;strokeColor=#6c8ebf;" vertex="1" parent="1">
          <mxGeometry x="-2470" y="-30" width="120" height="80" as="geometry" />
        </mxCell>
        <mxCell id="aQ0zjAfjhiI7hPz5W_YJ-63" value="broadcasts" style="edgeStyle=orthogonalEdgeStyle;rounded=0;orthogonalLoop=1;jettySize=auto;html=1;entryX=0.12;entryY=1.012;entryDx=0;entryDy=0;exitX=0.923;exitY=0.018;exitDx=0;exitDy=0;fillColor=#dae8fc;strokeColor=#6c8ebf;entryPerimeter=0;exitPerimeter=0;" edge="1" parent="1" source="aQ0zjAfjhiI7hPz5W_YJ-64" target="aQ0zjAfjhiI7hPz5W_YJ-57">
          <mxGeometry relative="1" as="geometry">
            <mxPoint x="-2030" y="-160" as="sourcePoint" />
            <mxPoint x="-2020" y="-260" as="targetPoint" />
            <Array as="points">
              <mxPoint x="-2099" y="-190" />
              <mxPoint x="-2096" y="-190" />
              <mxPoint x="-2096" y="-279" />
            </Array>
          </mxGeometry>
        </mxCell>
        <mxCell id="aQ0zjAfjhiI7hPz5W_YJ-64" value="Channel" style="shape=ext;double=1;rounded=0;whiteSpace=wrap;html=1;fontSize=20;fillColor=#dae8fc;strokeColor=#6c8ebf;" vertex="1" parent="1">
          <mxGeometry x="-2210" y="-190" width="120" height="80" as="geometry" />
        </mxCell>
        <mxCell id="aQ0zjAfjhiI7hPz5W_YJ-65" value="sent to" style="edgeStyle=orthogonalEdgeStyle;rounded=0;orthogonalLoop=1;jettySize=auto;html=1;exitX=0.083;exitY=1.012;exitDx=0;exitDy=0;fillColor=#dae8fc;strokeColor=#6c8ebf;exitPerimeter=0;" edge="1" parent="1" source="aQ0zjAfjhiI7hPz5W_YJ-66">
          <mxGeometry x="-0.6117" relative="1" as="geometry">
            <Array as="points">
              <mxPoint x="-2460" y="-291" />
            </Array>
            <mxPoint x="-2460" y="-291" as="targetPoint" />
            <mxPoint as="offset" />
          </mxGeometry>
        </mxCell>
        <mxCell id="aQ0zjAfjhiI7hPz5W_YJ-66" value="Notification" style="shape=ext;double=1;rounded=0;whiteSpace=wrap;html=1;fontSize=20;fillColor=#dae8fc;strokeColor=#6c8ebf;" vertex="1" parent="1">
          <mxGeometry x="-2470" y="-470" width="120" height="80" as="geometry" />
        </mxCell>
        <mxCell id="aQ0zjAfjhiI7hPz5W_YJ-67" value="Chat" style="shape=ext;double=1;rounded=0;whiteSpace=wrap;html=1;fontSize=20;fillColor=#dae8fc;strokeColor=#6c8ebf;" vertex="1" parent="1">
          <mxGeometry x="-2070" y="-130" width="120" height="80" as="geometry" />
        </mxCell>
        <mxCell id="aQ0zjAfjhiI7hPz5W_YJ-68" value="Category" style="shape=ext;double=1;rounded=0;whiteSpace=wrap;html=1;fontSize=20;fillColor=#dae8fc;strokeColor=#6c8ebf;" vertex="1" parent="1">
          <mxGeometry x="-2110" y="-480" width="120" height="80" as="geometry" />
        </mxCell>
        <mxCell id="aQ0zjAfjhiI7hPz5W_YJ-77" value="is send" style="edgeStyle=orthogonalEdgeStyle;rounded=0;orthogonalLoop=1;jettySize=auto;html=1;entryX=0;entryY=0.5;entryDx=0;entryDy=0;fillColor=#dae8fc;strokeColor=#6c8ebf;" edge="1" parent="1" source="aQ0zjAfjhiI7hPz5W_YJ-69" target="aQ0zjAfjhiI7hPz5W_YJ-67">
          <mxGeometry relative="1" as="geometry" />
        </mxCell>
        <mxCell id="aQ0zjAfjhiI7hPz5W_YJ-69" value="&amp;nbsp;Message" style="rounded=0;whiteSpace=wrap;html=1;fillColor=#dae8fc;strokeColor=#6c8ebf;fontSize=20;" vertex="1" parent="1">
          <mxGeometry x="-2160" y="-30" width="120" height="80" as="geometry" />
        </mxCell>
        <mxCell id="aQ0zjAfjhiI7hPz5W_YJ-72" value="valid for" style="edgeStyle=orthogonalEdgeStyle;rounded=0;orthogonalLoop=1;jettySize=auto;html=1;entryX=0.004;entryY=0.633;entryDx=0;entryDy=0;fillColor=#dae8fc;strokeColor=#6c8ebf;entryPerimeter=0;" edge="1" parent="1" source="aQ0zjAfjhiI7hPz5W_YJ-70" target="aQ0zjAfjhiI7hPz5W_YJ-64">
          <mxGeometry relative="1" as="geometry">
            <Array as="points">
              <mxPoint x="-2250" y="-139" />
            </Array>
          </mxGeometry>
        </mxCell>
        <mxCell id="aQ0zjAfjhiI7hPz5W_YJ-70" value="Subscription" style="rounded=0;whiteSpace=wrap;html=1;fillColor=#dae8fc;strokeColor=#6c8ebf;fontSize=20;" vertex="1" parent="1">
          <mxGeometry x="-2400" y="-156" width="120" height="80" as="geometry" />
        </mxCell>
        <mxCell id="aQ0zjAfjhiI7hPz5W_YJ-73" value="access" style="edgeStyle=orthogonalEdgeStyle;rounded=0;orthogonalLoop=1;jettySize=auto;html=1;exitX=0.25;exitY=1;exitDx=0;exitDy=0;fillColor=#dae8fc;strokeColor=#6c8ebf;entryX=0.832;entryY=0.035;entryDx=0;entryDy=0;entryPerimeter=0;" edge="1" parent="1" source="aQ0zjAfjhiI7hPz5W_YJ-70" target="aQ0zjAfjhiI7hPz5W_YJ-62">
          <mxGeometry relative="1" as="geometry">
            <mxPoint x="-2410" y="192" as="targetPoint" />
            <Array as="points" />
          </mxGeometry>
        </mxCell>
        <mxCell id="aQ0zjAfjhiI7hPz5W_YJ-75" value="used in" style="edgeStyle=orthogonalEdgeStyle;rounded=0;orthogonalLoop=1;jettySize=auto;html=1;fillColor=#dae8fc;strokeColor=#6c8ebf;entryX=0;entryY=0.75;entryDx=0;entryDy=0;" edge="1" parent="1" source="aQ0zjAfjhiI7hPz5W_YJ-62" target="aQ0zjAfjhiI7hPz5W_YJ-69">
          <mxGeometry x="0.0272" relative="1" as="geometry">
            <mxPoint x="-2180" y="29" as="targetPoint" />
            <Array as="points">
              <mxPoint x="-2280" y="30" />
              <mxPoint x="-2280" y="30" />
            </Array>
            <mxPoint as="offset" />
          </mxGeometry>
        </mxCell>
        <mxCell id="aQ0zjAfjhiI7hPz5W_YJ-76" value="types" style="edgeStyle=orthogonalEdgeStyle;rounded=0;orthogonalLoop=1;jettySize=auto;html=1;fillColor=#dae8fc;strokeColor=#6c8ebf;" edge="1" parent="1" source="aQ0zjAfjhiI7hPz5W_YJ-53">
          <mxGeometry relative="1" as="geometry">
            <mxPoint x="-2130" y="50" as="targetPoint" />
            <Array as="points">
              <mxPoint x="-2540" y="-251" />
              <mxPoint x="-2540" y="70" />
              <mxPoint x="-2130" y="70" />
              <mxPoint x="-2130" y="50" />
            </Array>
          </mxGeometry>
        </mxCell>
        <mxCell id="aQ0zjAfjhiI7hPz5W_YJ-80" value="&lt;font style=&quot;font-size: 80px;&quot;&gt;Conceptual Diagram&lt;/font&gt;" style="text;html=1;align=center;verticalAlign=middle;whiteSpace=wrap;rounded=0;fontSize=120;" vertex="1" parent="1">
          <mxGeometry x="-2660" y="-730" width="830" height="160" as="geometry" />
        </mxCell>
        <mxCell id="aQ0zjAfjhiI7hPz5W_YJ-82" value="&lt;font style=&quot;font-size: 80px;&quot;&gt;Logical Diagram&lt;/font&gt;" style="text;html=1;align=center;verticalAlign=middle;whiteSpace=wrap;rounded=0;fontSize=120;" vertex="1" parent="1">
          <mxGeometry x="-1260" y="-810" width="830" height="160" as="geometry" />
        </mxCell>
        <mxCell id="w1dutVMUiHzoiMJ74KZc-74" style="edgeStyle=orthogonalEdgeStyle;rounded=0;orthogonalLoop=1;jettySize=auto;html=1;entryX=0.5;entryY=0;entryDx=0;entryDy=0;endArrow=none;endFill=0;fillColor=#dae8fc;strokeColor=#6c8ebf;" edge="1" parent="1" source="w1dutVMUiHzoiMJ74KZc-44" target="aQ0zjAfjhiI7hPz5W_YJ-66">
          <mxGeometry relative="1" as="geometry" />
        </mxCell>
        <mxCell id="w1dutVMUiHzoiMJ74KZc-44" value="Message" style="ellipse;whiteSpace=wrap;html=1;fillColor=#dae8fc;strokeColor=#6c8ebf;" vertex="1" parent="1">
          <mxGeometry x="-2449.5" y="-560" width="79" height="50" as="geometry" />
        </mxCell>
        <mxCell id="w1dutVMUiHzoiMJ74KZc-73" style="edgeStyle=orthogonalEdgeStyle;rounded=0;orthogonalLoop=1;jettySize=auto;html=1;entryX=0.25;entryY=0;entryDx=0;entryDy=0;endArrow=none;endFill=0;fillColor=#dae8fc;strokeColor=#6c8ebf;" edge="1" parent="1" source="w1dutVMUiHzoiMJ74KZc-47" target="aQ0zjAfjhiI7hPz5W_YJ-68">
          <mxGeometry relative="1" as="geometry" />
        </mxCell>
        <mxCell id="w1dutVMUiHzoiMJ74KZc-47" value="Name&lt;span style=&quot;color: rgba(0, 0, 0, 0); font-family: monospace; font-size: 0px; text-align: start; text-wrap-mode: nowrap;&quot;&gt;%3CmxGraphModel%3E%3Croot%3E%3CmxCell%20id%3D%220%22%2F%3E%3CmxCell%20id%3D%221%22%20parent%3D%220%22%2F%3E%3CmxCell%20id%3D%222%22%20value%3D%22Message%22%20style%3D%22ellipse%3BwhiteSpace%3Dwrap%3Bhtml%3D1%3B%22%20vertex%3D%221%22%20parent%3D%221%22%3E%3CmxGeometry%20x%3D%22-2394%22%20y%3D%22-560%22%20width%3D%2279%22%20height%3D%2250%22%20as%3D%22geometry%22%2F%3E%3C%2FmxCell%3E%3C%2Froot%3E%3C%2FmxGraphModel%3E&lt;/span&gt;" style="ellipse;whiteSpace=wrap;html=1;fillColor=#dae8fc;strokeColor=#6c8ebf;" vertex="1" parent="1">
          <mxGeometry x="-2136" y="-575" width="79" height="50" as="geometry" />
        </mxCell>
        <mxCell id="w1dutVMUiHzoiMJ74KZc-72" style="edgeStyle=orthogonalEdgeStyle;rounded=0;orthogonalLoop=1;jettySize=auto;html=1;entryX=0.75;entryY=0;entryDx=0;entryDy=0;endArrow=none;endFill=0;fillColor=#dae8fc;strokeColor=#6c8ebf;" edge="1" parent="1" source="w1dutVMUiHzoiMJ74KZc-48" target="aQ0zjAfjhiI7hPz5W_YJ-68">
          <mxGeometry relative="1" as="geometry" />
        </mxCell>
        <mxCell id="w1dutVMUiHzoiMJ74KZc-48" value="Type" style="ellipse;whiteSpace=wrap;html=1;fillColor=#dae8fc;strokeColor=#6c8ebf;" vertex="1" parent="1">
          <mxGeometry x="-2046" y="-575" width="79" height="50" as="geometry" />
        </mxCell>
        <mxCell id="w1dutVMUiHzoiMJ74KZc-49" value="Username" style="ellipse;whiteSpace=wrap;html=1;fillColor=#dae8fc;strokeColor=#6c8ebf;" vertex="1" parent="1">
          <mxGeometry x="-2596" y="-311" width="79" height="50" as="geometry" />
        </mxCell>
        <mxCell id="w1dutVMUiHzoiMJ74KZc-52" value="Cost" style="ellipse;whiteSpace=wrap;html=1;fillColor=#dae8fc;strokeColor=#6c8ebf;" vertex="1" parent="1">
          <mxGeometry x="-2350" y="-70" width="30" height="20" as="geometry" />
        </mxCell>
        <mxCell id="w1dutVMUiHzoiMJ74KZc-55" value="End Date" style="ellipse;whiteSpace=wrap;html=1;fillColor=#dae8fc;strokeColor=#6c8ebf;" vertex="1" parent="1">
          <mxGeometry x="-2272.5" y="-81" width="55" height="20" as="geometry" />
        </mxCell>
        <mxCell id="w1dutVMUiHzoiMJ74KZc-56" value="StartDate" style="ellipse;whiteSpace=wrap;html=1;fillColor=#dae8fc;strokeColor=#6c8ebf;" vertex="1" parent="1">
          <mxGeometry x="-2275" y="-110" width="60" height="20" as="geometry" />
        </mxCell>
        <mxCell id="w1dutVMUiHzoiMJ74KZc-57" value="Tier" style="ellipse;whiteSpace=wrap;html=1;fillColor=#dae8fc;strokeColor=#6c8ebf;" vertex="1" parent="1">
          <mxGeometry x="-2310" y="-70" width="30" height="20" as="geometry" />
        </mxCell>
        <mxCell id="w1dutVMUiHzoiMJ74KZc-58" value="Text" style="ellipse;whiteSpace=wrap;html=1;fillColor=#dae8fc;strokeColor=#6c8ebf;" vertex="1" parent="1">
          <mxGeometry x="-2012" y="10" width="79" height="50" as="geometry" />
        </mxCell>
        <mxCell id="w1dutVMUiHzoiMJ74KZc-59" value="Time Send" style="ellipse;whiteSpace=wrap;html=1;fillColor=#dae8fc;strokeColor=#6c8ebf;" vertex="1" parent="1">
          <mxGeometry x="-2089.5" y="70" width="79" height="50" as="geometry" />
        </mxCell>
        <mxCell id="w1dutVMUiHzoiMJ74KZc-60" value="Is Live" style="ellipse;whiteSpace=wrap;html=1;fillColor=#dae8fc;strokeColor=#6c8ebf;" vertex="1" parent="1">
          <mxGeometry x="-2177.5" y="-90" width="55" height="20" as="geometry" />
        </mxCell>
        <mxCell id="w1dutVMUiHzoiMJ74KZc-61" value="Subscriber Count" style="ellipse;whiteSpace=wrap;html=1;fillColor=#dae8fc;strokeColor=#6c8ebf;" vertex="1" parent="1">
          <mxGeometry x="-2326" y="-202" width="100" height="29" as="geometry" />
        </mxCell>
        <mxCell id="w1dutVMUiHzoiMJ74KZc-62" value="Date" style="ellipse;whiteSpace=wrap;html=1;fillColor=#dae8fc;strokeColor=#6c8ebf;" vertex="1" parent="1">
          <mxGeometry x="-1910" y="-376" width="79" height="50" as="geometry" />
        </mxCell>
        <mxCell id="w1dutVMUiHzoiMJ74KZc-63" value="Duration" style="ellipse;whiteSpace=wrap;html=1;fillColor=#dae8fc;strokeColor=#6c8ebf;" vertex="1" parent="1">
          <mxGeometry x="-1910" y="-320" width="79" height="50" as="geometry" />
        </mxCell>
        <mxCell id="w1dutVMUiHzoiMJ74KZc-64" value="View Count" style="ellipse;whiteSpace=wrap;html=1;fillColor=#dae8fc;strokeColor=#6c8ebf;" vertex="1" parent="1">
          <mxGeometry x="-1915" y="-261" width="79" height="50" as="geometry" />
        </mxCell>
        <mxCell id="w1dutVMUiHzoiMJ74KZc-71" style="edgeStyle=orthogonalEdgeStyle;rounded=0;orthogonalLoop=1;jettySize=auto;html=1;entryX=1;entryY=0.25;entryDx=0;entryDy=0;endArrow=none;endFill=0;fillColor=#dae8fc;strokeColor=#6c8ebf;" edge="1" parent="1" source="w1dutVMUiHzoiMJ74KZc-65" target="aQ0zjAfjhiI7hPz5W_YJ-57">
          <mxGeometry relative="1" as="geometry">
            <Array as="points">
              <mxPoint x="-1970" y="-405" />
              <mxPoint x="-1970" y="-340" />
            </Array>
          </mxGeometry>
        </mxCell>
        <mxCell id="w1dutVMUiHzoiMJ74KZc-65" value="Title" style="ellipse;whiteSpace=wrap;html=1;fillColor=#dae8fc;strokeColor=#6c8ebf;" vertex="1" parent="1">
          <mxGeometry x="-1910" y="-430" width="79" height="50" as="geometry" />
        </mxCell>
        <mxCell id="w1dutVMUiHzoiMJ74KZc-66" style="edgeStyle=orthogonalEdgeStyle;rounded=0;orthogonalLoop=1;jettySize=auto;html=1;entryX=0.917;entryY=1.01;entryDx=0;entryDy=0;entryPerimeter=0;endArrow=none;endFill=0;fillColor=#dae8fc;strokeColor=#6c8ebf;" edge="1" parent="1" source="w1dutVMUiHzoiMJ74KZc-59" target="aQ0zjAfjhiI7hPz5W_YJ-69">
          <mxGeometry relative="1" as="geometry" />
        </mxCell>
        <mxCell id="w1dutVMUiHzoiMJ74KZc-67" style="edgeStyle=orthogonalEdgeStyle;rounded=0;orthogonalLoop=1;jettySize=auto;html=1;entryX=1.002;entryY=0.8;entryDx=0;entryDy=0;entryPerimeter=0;endArrow=none;endFill=0;fillColor=#dae8fc;strokeColor=#6c8ebf;" edge="1" parent="1" source="w1dutVMUiHzoiMJ74KZc-58" target="aQ0zjAfjhiI7hPz5W_YJ-69">
          <mxGeometry relative="1" as="geometry">
            <Array as="points">
              <mxPoint x="-2040" y="35" />
            </Array>
          </mxGeometry>
        </mxCell>
        <mxCell id="w1dutVMUiHzoiMJ74KZc-68" style="edgeStyle=orthogonalEdgeStyle;rounded=0;orthogonalLoop=1;jettySize=auto;html=1;entryX=1.008;entryY=0.922;entryDx=0;entryDy=0;entryPerimeter=0;endArrow=none;endFill=0;fillColor=#dae8fc;strokeColor=#6c8ebf;" edge="1" parent="1" source="w1dutVMUiHzoiMJ74KZc-64" target="aQ0zjAfjhiI7hPz5W_YJ-57">
          <mxGeometry relative="1" as="geometry">
            <Array as="points">
              <mxPoint x="-1970" y="-236" />
              <mxPoint x="-1970" y="-310" />
              <mxPoint x="-1989" y="-310" />
            </Array>
          </mxGeometry>
        </mxCell>
        <mxCell id="w1dutVMUiHzoiMJ74KZc-69" style="edgeStyle=orthogonalEdgeStyle;rounded=0;orthogonalLoop=1;jettySize=auto;html=1;entryX=1.002;entryY=0.812;entryDx=0;entryDy=0;entryPerimeter=0;endArrow=none;endFill=0;fillColor=#dae8fc;strokeColor=#6c8ebf;" edge="1" parent="1" source="w1dutVMUiHzoiMJ74KZc-63" target="aQ0zjAfjhiI7hPz5W_YJ-57">
          <mxGeometry relative="1" as="geometry">
            <Array as="points">
              <mxPoint x="-1950" y="-295" />
              <mxPoint x="-1950" y="-320" />
              <mxPoint x="-1990" y="-320" />
            </Array>
          </mxGeometry>
        </mxCell>
        <mxCell id="w1dutVMUiHzoiMJ74KZc-70" style="edgeStyle=orthogonalEdgeStyle;rounded=0;orthogonalLoop=1;jettySize=auto;html=1;entryX=0.996;entryY=0.644;entryDx=0;entryDy=0;entryPerimeter=0;endArrow=none;endFill=0;fillColor=#dae8fc;strokeColor=#6c8ebf;" edge="1" parent="1" source="w1dutVMUiHzoiMJ74KZc-62" target="aQ0zjAfjhiI7hPz5W_YJ-57">
          <mxGeometry relative="1" as="geometry">
            <Array as="points">
              <mxPoint x="-1950" y="-351" />
              <mxPoint x="-1950" y="-330" />
              <mxPoint x="-1990" y="-330" />
            </Array>
          </mxGeometry>
        </mxCell>
        <mxCell id="w1dutVMUiHzoiMJ74KZc-75" style="edgeStyle=orthogonalEdgeStyle;rounded=0;orthogonalLoop=1;jettySize=auto;html=1;entryX=-0.004;entryY=0.181;entryDx=0;entryDy=0;entryPerimeter=0;endArrow=none;endFill=0;fillColor=#dae8fc;strokeColor=#6c8ebf;" edge="1" parent="1" source="w1dutVMUiHzoiMJ74KZc-49" target="aQ0zjAfjhiI7hPz5W_YJ-53">
          <mxGeometry relative="1" as="geometry" />
        </mxCell>
        <mxCell id="w1dutVMUiHzoiMJ74KZc-77" style="edgeStyle=orthogonalEdgeStyle;rounded=0;orthogonalLoop=1;jettySize=auto;html=1;entryX=0.5;entryY=1;entryDx=0;entryDy=0;endArrow=none;endFill=0;fillColor=#dae8fc;strokeColor=#6c8ebf;" edge="1" parent="1" source="w1dutVMUiHzoiMJ74KZc-60" target="aQ0zjAfjhiI7hPz5W_YJ-64">
          <mxGeometry relative="1" as="geometry">
            <mxPoint x="-2150" y="-100" as="targetPoint" />
            <Array as="points" />
          </mxGeometry>
        </mxCell>
        <mxCell id="w1dutVMUiHzoiMJ74KZc-80" value="" style="endArrow=none;html=1;rounded=0;exitX=0.5;exitY=0;exitDx=0;exitDy=0;entryX=0.544;entryY=1.003;entryDx=0;entryDy=0;entryPerimeter=0;fillColor=#dae8fc;strokeColor=#6c8ebf;" edge="1" parent="1" source="w1dutVMUiHzoiMJ74KZc-52" target="aQ0zjAfjhiI7hPz5W_YJ-70">
          <mxGeometry width="50" height="50" relative="1" as="geometry">
            <mxPoint x="-2330" y="-40" as="sourcePoint" />
            <mxPoint x="-2280" y="-90" as="targetPoint" />
          </mxGeometry>
        </mxCell>
        <mxCell id="w1dutVMUiHzoiMJ74KZc-81" value="" style="endArrow=none;html=1;rounded=0;exitX=0.5;exitY=0;exitDx=0;exitDy=0;entryX=0.874;entryY=1.006;entryDx=0;entryDy=0;entryPerimeter=0;fillColor=#dae8fc;strokeColor=#6c8ebf;" edge="1" parent="1" source="w1dutVMUiHzoiMJ74KZc-57" target="aQ0zjAfjhiI7hPz5W_YJ-70">
          <mxGeometry width="50" height="50" relative="1" as="geometry">
            <mxPoint x="-2330" y="-40" as="sourcePoint" />
            <mxPoint x="-2280" y="-90" as="targetPoint" />
          </mxGeometry>
        </mxCell>
        <mxCell id="w1dutVMUiHzoiMJ74KZc-82" value="" style="endArrow=none;html=1;rounded=0;entryX=0;entryY=0.5;entryDx=0;entryDy=0;exitX=1;exitY=1;exitDx=0;exitDy=0;fillColor=#dae8fc;strokeColor=#6c8ebf;" edge="1" parent="1" source="aQ0zjAfjhiI7hPz5W_YJ-70" target="w1dutVMUiHzoiMJ74KZc-55">
          <mxGeometry width="50" height="50" relative="1" as="geometry">
            <mxPoint x="-2290" y="-40" as="sourcePoint" />
            <mxPoint x="-2240" y="-90" as="targetPoint" />
          </mxGeometry>
        </mxCell>
        <mxCell id="w1dutVMUiHzoiMJ74KZc-83" value="" style="endArrow=none;html=1;rounded=0;entryX=0;entryY=0.5;entryDx=0;entryDy=0;exitX=0.999;exitY=0.697;exitDx=0;exitDy=0;exitPerimeter=0;fillColor=#dae8fc;strokeColor=#6c8ebf;" edge="1" parent="1" source="aQ0zjAfjhiI7hPz5W_YJ-70" target="w1dutVMUiHzoiMJ74KZc-56">
          <mxGeometry width="50" height="50" relative="1" as="geometry">
            <mxPoint x="-2290" y="-70" as="sourcePoint" />
            <mxPoint x="-2240" y="-120" as="targetPoint" />
          </mxGeometry>
        </mxCell>
        <mxCell id="w1dutVMUiHzoiMJ74KZc-84" value="" style="endArrow=none;html=1;rounded=0;entryX=1;entryY=1;entryDx=0;entryDy=0;exitX=0;exitY=0.25;exitDx=0;exitDy=0;fillColor=#dae8fc;strokeColor=#6c8ebf;" edge="1" parent="1" source="aQ0zjAfjhiI7hPz5W_YJ-64" target="w1dutVMUiHzoiMJ74KZc-61">
          <mxGeometry width="50" height="50" relative="1" as="geometry">
            <mxPoint x="-2220" y="-90" as="sourcePoint" />
            <mxPoint x="-2170" y="-140" as="targetPoint" />
          </mxGeometry>
        </mxCell>
      </root>
    </mxGraphModel>
  </diagram>
</mxfile>
